HIERARCHY
ROOT Hips
{
	OFFSET -0.179506 -22.333345 2.821913
	CHANNELS 6 Xposition Yposition Zposition Zrotation Yrotation Xrotation 
	JOINT LeftUpLeg
	{
		OFFSET 6.951974 -9.140623 -0.681533
		CHANNELS 3 Zrotation Yrotation Xrotation
		JOINT LeftLeg
		{
			OFFSET 3.427654 -37.519855 -0.449580
			CHANNELS 3 Zrotation Yrotation Xrotation
			JOINT LeftFoot
			{
				OFFSET -1.359570 -39.796059 -4.369333
				CHANNELS 3 Zrotation Yrotation Xrotation
				JOINT LeftToe
				{
					OFFSET 2.635814 -5.579078 11.928840
					CHANNELS 3 Zrotation Yrotation Xrotation
					End Site
					{
						OFFSET 0.000000 0.000000 0.000000
					}
				}
			}
		}
	}
	JOINT RightUpLeg
	{
		OFFSET -6.767048 -9.052170 -0.431982
		CHANNELS 3 Zrotation Yrotation Xrotation
		JOINT RightLeg
		{
			OFFSET -3.829005 -38.256897 -0.885003
			CHANNELS 3 Zrotation Yrotation Xrotation
			JOINT RightFoot
			{
				OFFSET 1.577377 -39.841461 -4.231180
				CHANNELS 3 Zrotation Yrotation Xrotation
				JOINT RightToe
				{
					OFFSET -2.537174 -4.814398 12.334795
					CHANNELS 3 Zrotation Yrotation Xrotation
					End Site
					{
						OFFSET 0.000000 0.000000 0.000000
					}
				}
			}
		}
	}
	JOINT Spine
	{
		OFFSET -0.253288 10.896323 -2.669631
		CHANNELS 3 Zrotation Yrotation Xrotation
		JOINT Spine1
		{
			OFFSET 0.548704 13.518043 0.109247
			CHANNELS 3 Zrotation Yrotation Xrotation
			JOINT Spine2
			{
				OFFSET 0.145701 5.292222 2.542457
				CHANNELS 3 Zrotation Yrotation Xrotation
				JOINT Neck
				{
					OFFSET -0.277840 21.387037 -4.285703
					CHANNELS 3 Zrotation Yrotation Xrotation
					JOINT Head
					{
						OFFSET 0.515184 6.496960 5.134897
						CHANNELS 3 Zrotation Yrotation Xrotation
						End Site
						{
							OFFSET 0.000000 0.000000 0.000000
						}
					}
				}
				JOINT LeftShoulder
				{
					OFFSET 7.884473 12.174932 -3.408961
					CHANNELS 3 Zrotation Yrotation Xrotation
					JOINT LeftArm
					{
						OFFSET 9.097692 3.046888 -0.886815
						CHANNELS 3 Zrotation Yrotation Xrotation
						JOINT LeftForeArm
						{
							OFFSET 25.961220 -1.277207 -2.745643
							CHANNELS 3 Zrotation Yrotation Xrotation
							JOINT LeftHand
							{
								OFFSET 24.923361 0.898606 -0.117091
								CHANNELS 3 Zrotation Yrotation Xrotation
								End Site
								{
									OFFSET 0.000000 0.000000 0.000000
								}
							}
						}
					}
				}
				JOINT RightShoulder
				{
					OFFSET -8.175920 11.883285 -3.861528
					CHANNELS 3 Zrotation Yrotation Xrotation
					JOINT RightArm
					{
						OFFSET -9.601238 3.255117 -0.914307
						CHANNELS 3 Zrotation Yrotation Xrotation
						JOINT RightForeArm
						{
							OFFSET -25.374195 -1.332924 -2.140099
							CHANNELS 3 Zrotation Yrotation Xrotation
							JOINT RightHand
							{
								OFFSET -25.529810 0.777228 -0.555919
								CHANNELS 3 Zrotation Yrotation Xrotation
								End Site
								{
									OFFSET 0.000000 0.000000 0.000000
								}
							}
						}
					}
				}
			}
		}
	}
}
MOTION
Frames: 13
Frame Time: 0.033333
2.111588 -0.950109 90.705063 -114.728657 4.509400 86.623825 14.763636 5.338327 -4.027218 -5.523022 0.872228 25.921685 1.882924 12.169478 -28.906515 nan nan nan -11.293689 -8.805664 -12.957984 2.698243 -9.580872 15.284894 4.356474 -5.848276 -4.410105 nan nan nan -6.891621 1.177267 4.107282 6.338954 -5.862339 9.772785 2.222290 -0.910964 -6.066646 -0.520699 6.779238 -2.480321 1.419938 3.180628 4.512333 -16.994745 -11.962914 3.976083 -64.330315 -40.651179 30.291057 156.677125 -67.912274 -126.213548 -5.408164 -19.216372 -7.560627 20.077059 0.585905 -0.143001 41.027854 11.401655 -5.736683 -89.270038 48.952052 -65.407990 5.329589 4.747288 -2.064903 
2.262142 -1.001903 90.800865 -114.670625 4.966112 86.700729 15.312356 5.805932 -4.488698 -6.670268 -1.392150 26.297127 1.457008 14.081345 -28.370588 nan nan nan -10.449896 -8.915237 -13.012019 2.790950 -7.949873 15.073874 4.337131 -7.568485 -4.649083 nan nan nan -6.515226 1.092565 4.781935 6.235850 -5.374181 6.889930 2.622765 -0.484820 -3.034364 -3.419028 11.596287 -5.592283 -1.032525 12.680632 2.785558 -17.945093 -13.178948 3.526716 -70.650859 -35.714834 32.601744 175.243695 -70.340607 -129.495061 22.101296 -8.508606 -9.690859 19.731243 -0.622363 -1.571877 40.747272 11.061022 -6.093059 -88.248680 51.381185 -62.050979 -8.482834 2.947457 -3.484867 
2.348459 -1.038722 90.876518 -114.663324 5.045197 86.829998 15.413184 5.795110 -4.808202 -6.763818 -1.599263 26.443480 1.393238 14.261833 -28.148790 nan nan nan -10.308759 -8.920262 -13.139526 2.827783 -7.916036 15.109919 4.340890 -7.793853 -4.629398 nan nan nan -6.591716 1.159794 4.777200 6.328228 -5.354841 6.518656 2.690436 -0.474130 -2.640650 -3.726114 12.274558 -5.366916 -1.117925 13.597916 2.864823 -17.640079 -12.896473 3.228226 -70.608298 -35.812192 32.427694 176.501072 -70.036536 -129.695892 22.754896 -7.591028 -11.036403 19.712829 -1.007964 -1.804158 40.605543 10.988349 -5.992171 -88.340450 51.570690 -61.776853 -8.412325 2.664372 -3.929155 
2.462004 -1.046681 90.955940 -114.624289 5.091158 86.988747 15.488981 5.747330 -5.224798 -6.811259 -1.671191 26.659112 1.378551 14.388261 -27.965800 nan nan nan -10.195761 -8.948297 -13.384739 2.849704 -7.917208 15.291771 4.294863 -7.980871 -4.653382 nan nan nan -6.695292 1.202627 4.707038 6.432352 -5.380445 6.381115 2.686221 -0.493079 -2.501892 -3.616726 12.013094 -5.036497 -0.885095 13.552048 3.497819 -17.533458 -12.495961 3.033740 -70.087646 -36.209257 32.410853 177.332231 -69.774060 -130.622886 23.289238 -7.106769 -11.887630 19.866866 -1.345073 -1.985700 40.319801 10.908628 -5.781804 -88.391413 51.735298 -61.954685 -8.658300 2.488076 -4.414613 
2.681763 -0.928085 90.850876 -114.468288 4.911416 86.761772 15.647379 6.011974 -5.590897 -7.166246 -1.863685 27.443187 0.716860 13.968618 -27.728024 nan nan nan -10.490735 -9.345464 -13.431987 3.290394 -7.291992 16.034968 4.622505 -8.312611 -5.464356 nan nan nan -8.844728 2.055614 3.529711 8.924932 -6.400764 9.460573 2.105743 -0.548320 -3.954518 2.393126 -23.870156 18.635425 9.506614 -16.628918 15.351645 -17.509097 -9.465801 7.417765 -70.724829 -43.164721 34.714606 175.900544 -70.873817 -129.685670 24.729636 -6.655623 -12.838571 19.143879 -0.717281 -2.005947 40.367044 10.758239 -6.082554 -87.887830 51.381314 -60.438008 -8.376322 3.918467 -7.993488 
2.774529 -0.710613 90.891624 -114.379151 6.357911 85.296670 17.704476 9.351933 -5.142243 -4.861027 -2.094474 29.358371 3.798073 8.538988 -26.680971 nan nan nan -7.995160 -11.810701 -12.214461 2.498549 -4.163766 17.161328 6.670154 -8.260204 -7.577046 nan nan nan -6.654380 2.447684 7.794888 8.255464 -5.182643 3.283481 2.784048 -3.217370 -0.052342 4.311552 -19.889753 13.311855 7.201743 -21.970972 21.370731 -13.725672 -9.258944 2.305523 -70.459282 -40.388379 23.582284 -153.329622 -68.571751 -141.867622 30.853610 8.329931 -36.748305 18.552187 1.395776 0.094348 40.540666 11.378156 -8.972581 -89.798649 50.700107 -51.459519 1.584189 6.868760 -22.076483 
2.884533 -0.772224 90.939529 -114.240944 6.359065 85.404381 17.708320 9.135513 -5.583651 -4.781241 -1.841159 29.620811 4.119984 8.468661 -26.474763 nan nan nan -8.018016 -11.808562 -12.352285 2.719017 -3.895751 17.245738 7.117949 -8.607137 -7.701189 nan nan nan -6.772986 2.622638 7.935357 8.345894 -5.140377 2.343680 2.673514 -3.392353 1.017605 5.119685 -19.514280 11.693272 6.687327 -22.985713 22.818052 -13.236291 -9.537506 1.623770 -70.433850 -41.687539 23.494833 -150.606273 -70.182162 -145.353291 34.722809 6.787687 -38.552147 18.382384 1.041981 -0.358967 40.804057 11.502177 -8.331447 -89.754245 50.499782 -51.190342 0.823073 7.547004 -22.831654 
3.034193 -0.783377 90.909126 -114.213172 6.147551 85.790633 17.854568 5.474573 -5.575361 -3.167566 4.522032 28.861980 2.667037 5.074576 -26.824018 nan nan nan -8.857258 -9.622043 -12.759479 1.333423 -10.435080 17.479706 7.987111 -3.506438 -6.628675 nan nan nan -7.185685 3.018467 6.998523 8.107150 -5.578743 4.087077 2.736958 -2.854064 -0.188451 7.733402 -17.163729 10.278969 5.872857 -26.315588 23.799147 -12.671473 -10.816077 1.538687 -66.969442 -41.885809 25.006968 174.524142 -68.374111 -132.663747 2.581641 -16.371471 -28.382544 19.401717 0.620005 -0.451609 40.386929 11.761283 -6.579626 -90.651227 47.927262 -59.502058 8.620255 6.918739 -7.994899 
3.126722 -0.726100 90.877586 -114.151465 6.185799 85.640506 17.960354 5.685159 -5.612884 -2.952946 4.562963 29.105053 2.480620 4.616921 -26.833498 nan nan nan -8.876632 -9.876687 -12.849534 1.202117 -11.132757 17.716109 7.815838 -2.691437 -6.497934 nan nan nan -7.219313 3.115467 7.283969 7.991395 -5.686188 4.358229 2.974600 -2.783668 -0.993302 6.540007 -17.672606 12.103613 6.217007 -25.577843 21.756925 -12.709951 -11.370387 1.964265 -66.954650 -41.784377 24.609889 173.808795 -68.591298 -132.757733 1.528271 -16.869273 -27.301020 18.951290 0.922535 0.174157 40.880764 11.616049 -7.213420 -90.752668 47.968383 -60.050307 8.762595 6.782915 -6.944297 
3.255587 -0.655222 90.824547 -114.134119 6.077104 85.304388 18.003832 5.552075 -5.326770 -2.882164 4.838259 29.129117 2.153817 4.236809 -26.862576 nan nan nan -9.185051 -9.830457 -12.680896 1.216958 -11.690779 17.942685 7.558356 -1.816559 -6.525667 nan nan nan -7.192544 2.825492 7.280425 7.678625 -6.332374 6.829834 2.700877 -2.040777 -2.816980 6.751955 -16.727793 11.680498 6.622349 -25.962414 21.378855 -12.202826 -11.249252 1.127739 -67.349663 -41.682562 25.070468 172.041783 -69.094074 -133.225789 0.173141 -18.709657 -25.814004 18.988398 1.135413 0.156882 41.582801 11.936845 -7.114726 -91.016161 47.712470 -60.877413 9.147334 6.752104 -5.088122 
3.405549 -0.605470 90.848442 -114.042646 6.117890 85.289661 18.132128 5.302804 -5.388893 -3.233407 4.662150 29.289645 1.526822 4.732142 -26.745626 nan nan nan -9.332542 -9.560431 -12.796994 1.639317 -11.497407 18.490792 7.697692 -2.037128 -6.465422 nan nan nan -7.184278 2.773609 7.326680 7.717203 -6.416140 7.081129 2.588380 -1.797812 -3.016321 6.886967 -16.364278 11.627359 6.780811 -26.287269 20.949698 -12.141369 -11.486548 1.192545 -67.487084 -41.929641 25.343295 171.480090 -69.427375 -133.123522 0.066503 -19.026143 -25.270871 18.973589 1.041367 0.064875 41.832911 11.994727 -7.261647 -91.164586 47.698542 -60.898050 8.826429 6.752512 -4.787965 
3.542546 -0.556257 90.859451 -113.865760 6.178552 85.215658 18.258878 5.223012 -5.541331 -3.324326 4.524364 29.539346 1.535949 4.743587 -26.768605 nan nan nan -9.468848 -9.497990 -12.781661 1.779914 -11.660414 18.665395 7.975476 -1.770863 -6.320328 nan nan nan -7.153928 2.877504 7.385247 7.750388 -6.413733 7.305191 2.623555 -1.769563 -3.111444 6.965894 -16.412830 11.395691 6.729115 -26.529248 20.875694 -12.088114 -11.962058 1.139241 -67.510552 -42.058167 25.464686 171.004586 -69.700710 -132.817036 0.002798 -19.071240 -25.052434 18.821340 1.107504 -0.110108 42.000115 11.782114 -7.398486 -91.396646 47.554718 -61.157247 8.702916 6.807455 -5.035672 
3.650847 -0.526672 90.854576 -113.656324 6.201678 85.223099 18.302832 5.031120 -5.800967 -3.314192 4.543198 29.829630 1.590291 4.686755 -26.762248 nan nan nan -9.708704 -9.425876 -12.822652 1.976970 -11.786083 18.870538 8.202030 -1.444735 -6.245460 nan nan nan -7.071029 2.969929 7.293174 7.765749 -6.432745 7.577142 2.628903 -1.794903 -3.258698 6.864732 -16.540190 11.360811 6.750881 -26.648774 20.716122 -12.093690 -12.431648 0.995243 -67.479600 -42.071939 25.603770 170.400908 -69.931835 -132.494181 -0.147498 -19.072927 -24.664120 18.681464 1.269772 -0.239151 42.083216 11.509756 -7.468879 -91.794053 47.301926 -61.885748 8.780756 6.797452 -5.474980 
